<svg width="35" height="25" viewBox="0 0 35 25" fill="none" xmlns="http://www.w3.org/2000/svg">
<path d="M26.7222 25.0001C30.6807 25.0001 33.8897 21.7911 33.8897 17.8325C33.8897 13.874 30.6807 10.665 26.7222 10.665C22.7637 10.665 19.5547 13.874 19.5547 17.8325C19.5547 21.7911 22.7637 25.0001 26.7222 25.0001Z" fill="#FDB813"/>
<path d="M18.0634 15.2722C20.1382 15.2722 21.8201 13.2767 21.8201 10.8151C21.8201 8.35344 20.1382 6.35791 18.0634 6.35791C15.9886 6.35791 14.3066 8.35344 14.3066 10.8151C14.3066 13.2767 15.9886 15.2722 18.0634 15.2722Z" stroke="#616166" stroke-width="0.312" stroke-linecap="round" stroke-linejoin="round"/>
<path d="M26.9558 14.1684C28.9486 14.1684 30.564 12.2489 30.564 9.8811C30.564 7.51326 28.9486 5.59375 26.9558 5.59375C24.9631 5.59375 23.3477 7.51326 23.3477 9.8811C23.3477 12.2489 24.9631 14.1684 26.9558 14.1684Z" stroke="#616166" stroke-width="0.29969" stroke-linecap="round" stroke-linejoin="round"/>
<path d="M8.68212 14.1684C10.6866 14.1684 12.3115 12.2489 12.3115 9.8811C12.3115 7.51326 10.6866 5.59375 8.68212 5.59375C6.67767 5.59375 5.05273 7.51326 5.05273 9.8811C5.05273 12.2489 6.67767 14.1684 8.68212 14.1684Z" stroke="#616166" stroke-width="0.29969" stroke-linecap="round" stroke-linejoin="round"/>
<path d="M15.3688 15.0008C15.3688 15.0008 13.7579 16.4106 12.0798 16.8805C10.4952 17.3241 10.2274 18.4261 10.3721 20.8074C10.3912 21.1211 10.5525 21.4094 10.8102 21.5894C11.5879 22.1323 13.6182 23.1226 18.0813 23.1226C22.5444 23.1226 24.6902 22.1467 25.5621 21.6012C25.8618 21.4136 26.0417 21.0834 26.0417 20.7298V18.6922C26.0417 18.6922 26.0417 17.3873 24.4308 16.8126C23.0499 16.3202 20.9839 15 20.9839 15" stroke="#616166" stroke-width="0.312" stroke-linecap="round" stroke-linejoin="round"/>
<path d="M11.1426 14.2144L14.0457 15.9641" stroke="#616166" stroke-width="0.29969" stroke-linecap="round" stroke-linejoin="round"/>
<path d="M22.0898 15.6657L24.4016 14.2144" stroke="#616166" stroke-width="0.29969" stroke-linecap="round" stroke-linejoin="round"/>
<path d="M29.3949 14.2144C29.3949 14.2144 31.1191 15.3927 31.9516 15.6657C32.784 15.9386 34.181 16.1466 34.3597 17.6926C34.538 19.2386 34.3597 19.9522 34.3597 19.9522C34.3597 19.9522 32.9376 22.2508 25.1016 21.8594" stroke="#616166" stroke-width="0.29969" stroke-linecap="round" stroke-linejoin="round"/>
<path d="M6.04407 14.2144C6.04407 14.2144 4.31979 15.3927 3.48737 15.6657C2.65494 15.9386 1.25795 16.1466 1.07924 17.6926C0.900952 19.2386 1.07924 19.9522 1.07924 19.9522C1.07924 19.9522 3.13929 22.0903 10.9749 21.699" stroke="#616166" stroke-width="0.29969" stroke-linecap="round" stroke-linejoin="round"/>
<path d="M16.6573 4.21561C16.9155 4.06508 17.001 3.73068 16.8483 3.46873C16.6956 3.20677 16.3625 3.11645 16.1043 3.26698C15.846 3.41752 15.7605 3.75191 15.9132 4.01387C16.066 4.27582 16.3991 4.36615 16.6573 4.21561Z" fill="#616166"/>
<path d="M20.2569 4.25761C20.5151 4.10707 20.6006 3.77268 20.4479 3.51072C20.2952 3.24876 19.9621 3.15844 19.7039 3.30897C19.4457 3.45951 19.3601 3.7939 19.5128 4.05586C19.6656 4.31782 19.9987 4.40814 20.2569 4.25761Z" fill="#616166"/>
<path d="M18.4561 1.22098C18.7143 1.07045 18.7999 0.736056 18.6472 0.474099C18.4944 0.212142 18.1613 0.121817 17.9031 0.272353C17.6449 0.422889 17.5593 0.75728 17.7121 1.01924C17.8648 1.28119 18.1979 1.37152 18.4561 1.22098Z" fill="#616166"/>
</svg>
