<svg width="45" height="45" viewBox="0 0 45 45" fill="none" xmlns="http://www.w3.org/2000/svg">
<circle cx="22.5" cy="22.5" r="21.5" fill="#0F0F0F"/>
<circle cx="22.5" cy="22.5" r="21.5" fill="white"/>
<circle cx="22.5" cy="22.5" r="21.5" stroke="#FDB813" stroke-width="2"/>
<path d="M30.7709 24.0926C34.9386 24.0926 38.3172 20.714 38.3172 16.5463C38.3172 12.3786 34.9386 9 30.7709 9C26.6032 9 23.2246 12.3786 23.2246 16.5463C23.2246 20.714 26.6032 24.0926 30.7709 24.0926Z" fill="#FDB813"/>
<path fill-rule="evenodd" clip-rule="evenodd" d="M25.8867 17.5654H33.2915V33.1983H25.8867V17.5654ZM26.1869 17.8656V32.8981H32.9914V17.8656H26.1869Z" fill="url(#paint0_radial_2396_118344)"/>
<path fill-rule="evenodd" clip-rule="evenodd" d="M10.7402 17.5654H18.145V33.1983H10.7402V17.5654ZM11.0404 17.8656V32.8981H17.8449V17.8656H11.0404Z" fill="url(#paint1_radial_2396_118344)"/>
<path fill-rule="evenodd" clip-rule="evenodd" d="M17.8613 11.8628H26.1837V33.1982H17.8613V11.8628ZM18.1615 12.1629V32.8981H25.8836V12.1629H18.1615Z" fill="url(#paint2_radial_2396_118344)"/>
<path fill-rule="evenodd" clip-rule="evenodd" d="M19.4743 13.1577C19.5572 13.1577 19.6244 13.2249 19.6244 13.3078V14.1182C19.6244 14.201 19.5572 14.2682 19.4743 14.2682C19.3914 14.2682 19.3242 14.201 19.3242 14.1182V13.3078C19.3242 13.2249 19.3914 13.1577 19.4743 13.1577Z" fill="url(#paint3_radial_2396_118344)"/>
<path fill-rule="evenodd" clip-rule="evenodd" d="M19.4743 15.4429C19.5572 15.4429 19.6244 15.5101 19.6244 15.5929V29.6093C19.6244 29.6922 19.5572 29.7594 19.4743 29.7594C19.3914 29.7594 19.3242 29.6922 19.3242 29.6093V15.5929C19.3242 15.5101 19.3914 15.4429 19.4743 15.4429Z" fill="url(#paint4_radial_2396_118344)"/>
<path fill-rule="evenodd" clip-rule="evenodd" d="M19.4743 30.1973C19.5572 30.1973 19.6244 30.2645 19.6244 30.3473V31.1577C19.6244 31.2406 19.5572 31.3078 19.4743 31.3078C19.3914 31.3078 19.3242 31.2406 19.3242 31.1577V30.3473C19.3242 30.2645 19.3914 30.1973 19.4743 30.1973Z" fill="url(#paint5_radial_2396_118344)"/>
<path fill-rule="evenodd" clip-rule="evenodd" d="M21.1755 13.1577C21.2583 13.1577 21.3255 13.2249 21.3255 13.3078V14.1182C21.3255 14.201 21.2583 14.2682 21.1755 14.2682C21.0926 14.2682 21.0254 14.201 21.0254 14.1182V13.3078C21.0254 13.2249 21.0926 13.1577 21.1755 13.1577Z" fill="url(#paint6_radial_2396_118344)"/>
<path fill-rule="evenodd" clip-rule="evenodd" d="M21.1755 15.4429C21.2583 15.4429 21.3255 15.5101 21.3255 15.5929V29.6093C21.3255 29.6922 21.2583 29.7594 21.1755 29.7594C21.0926 29.7594 21.0254 29.6922 21.0254 29.6093V15.5929C21.0254 15.5101 21.0926 15.4429 21.1755 15.4429Z" fill="url(#paint7_radial_2396_118344)"/>
<path fill-rule="evenodd" clip-rule="evenodd" d="M21.1755 30.1973C21.2583 30.1973 21.3255 30.2645 21.3255 30.3473V31.1577C21.3255 31.2406 21.2583 31.3078 21.1755 31.3078C21.0926 31.3078 21.0254 31.2406 21.0254 31.1577V30.3473C21.0254 30.2645 21.0926 30.1973 21.1755 30.1973Z" fill="url(#paint8_radial_2396_118344)"/>
<path fill-rule="evenodd" clip-rule="evenodd" d="M22.8747 13.1577C22.9576 13.1577 23.0247 13.2249 23.0247 13.3078V14.1182C23.0247 14.201 22.9576 14.2682 22.8747 14.2682C22.7918 14.2682 22.7246 14.201 22.7246 14.1182V13.3078C22.7246 13.2249 22.7918 13.1577 22.8747 13.1577Z" fill="url(#paint9_radial_2396_118344)"/>
<path fill-rule="evenodd" clip-rule="evenodd" d="M22.8747 15.4429C22.9576 15.4429 23.0247 15.5101 23.0247 15.5929V29.6093C23.0247 29.6922 22.9576 29.7594 22.8747 29.7594C22.7918 29.7594 22.7246 29.6922 22.7246 29.6093V15.5929C22.7246 15.5101 22.7918 15.4429 22.8747 15.4429Z" fill="url(#paint10_radial_2396_118344)"/>
<path fill-rule="evenodd" clip-rule="evenodd" d="M22.8747 30.1973C22.9576 30.1973 23.0247 30.2645 23.0247 30.3473V31.1577C23.0247 31.2406 22.9576 31.3078 22.8747 31.3078C22.7918 31.3078 22.7246 31.2406 22.7246 31.1577V30.3473C22.7246 30.2645 22.7918 30.1973 22.8747 30.1973Z" fill="url(#paint11_radial_2396_118344)"/>
<path fill-rule="evenodd" clip-rule="evenodd" d="M24.5758 13.1577C24.6587 13.1577 24.7259 13.2249 24.7259 13.3078V14.1182C24.7259 14.201 24.6587 14.2682 24.5758 14.2682C24.493 14.2682 24.4258 14.201 24.4258 14.1182V13.3078C24.4258 13.2249 24.493 13.1577 24.5758 13.1577Z" fill="url(#paint12_radial_2396_118344)"/>
<path fill-rule="evenodd" clip-rule="evenodd" d="M24.5758 15.4429C24.6587 15.4429 24.7259 15.5101 24.7259 15.5929V29.6093C24.7259 29.6922 24.6587 29.7594 24.5758 29.7594C24.493 29.7594 24.4258 29.6922 24.4258 29.6093V15.5929C24.4258 15.5101 24.493 15.4429 24.5758 15.4429Z" fill="url(#paint13_radial_2396_118344)"/>
<path fill-rule="evenodd" clip-rule="evenodd" d="M24.5758 30.1973C24.6587 30.1973 24.7259 30.2645 24.7259 30.3473V31.1577C24.7259 31.2406 24.6587 31.3078 24.5758 31.3078C24.493 31.3078 24.4258 31.2406 24.4258 31.1577V30.3473C24.4258 30.2645 24.493 30.1973 24.5758 30.1973Z" fill="url(#paint14_radial_2396_118344)"/>
<path fill-rule="evenodd" clip-rule="evenodd" d="M27.0625 20.6188C27.0625 20.5359 27.1297 20.4688 27.2126 20.4688H28.0229C28.1058 20.4688 28.173 20.5359 28.173 20.6188C28.173 20.7017 28.1058 20.7689 28.0229 20.7689H27.2126C27.1297 20.7689 27.0625 20.7017 27.0625 20.6188Z" fill="url(#paint15_radial_2396_118344)"/>
<path fill-rule="evenodd" clip-rule="evenodd" d="M28.8887 20.6188C28.8887 20.5359 28.9559 20.4688 29.0387 20.4688H30.5609C30.6437 20.4688 30.7109 20.5359 30.7109 20.6188C30.7109 20.7017 30.6437 20.7689 30.5609 20.7689H29.0387C28.9559 20.7689 28.8887 20.7017 28.8887 20.6188Z" fill="url(#paint16_radial_2396_118344)"/>
<path fill-rule="evenodd" clip-rule="evenodd" d="M30.916 20.6188C30.916 20.5359 30.9832 20.4688 31.0661 20.4688H31.8765C31.9593 20.4688 32.0265 20.5359 32.0265 20.6188C32.0265 20.7017 31.9593 20.7689 31.8765 20.7689H31.0661C30.9832 20.7689 30.916 20.7017 30.916 20.6188Z" fill="url(#paint17_radial_2396_118344)"/>
<path fill-rule="evenodd" clip-rule="evenodd" d="M27.0625 23.0026C27.0625 22.9197 27.1297 22.8525 27.2126 22.8525H28.0229C28.1058 22.8525 28.173 22.9197 28.173 23.0026C28.173 23.0855 28.1058 23.1527 28.0229 23.1527H27.2126C27.1297 23.1527 27.0625 23.0855 27.0625 23.0026Z" fill="url(#paint18_radial_2396_118344)"/>
<path fill-rule="evenodd" clip-rule="evenodd" d="M28.8887 23.0026C28.8887 22.9197 28.9559 22.8525 29.0387 22.8525H30.5609C30.6437 22.8525 30.7109 22.9197 30.7109 23.0026C30.7109 23.0855 30.6437 23.1527 30.5609 23.1527H29.0387C28.9559 23.1527 28.8887 23.0855 28.8887 23.0026Z" fill="url(#paint19_radial_2396_118344)"/>
<path fill-rule="evenodd" clip-rule="evenodd" d="M30.916 23.0026C30.916 22.9197 30.9832 22.8525 31.0661 22.8525H31.8765C31.9593 22.8525 32.0265 22.9197 32.0265 23.0026C32.0265 23.0855 31.9593 23.1527 31.8765 23.1527H31.0661C30.9832 23.1527 30.916 23.0855 30.916 23.0026Z" fill="url(#paint20_radial_2396_118344)"/>
<path fill-rule="evenodd" clip-rule="evenodd" d="M27.0625 25.3864C27.0625 25.3035 27.1297 25.2363 27.2126 25.2363H28.0229C28.1058 25.2363 28.173 25.3035 28.173 25.3864C28.173 25.4693 28.1058 25.5365 28.0229 25.5365H27.2126C27.1297 25.5365 27.0625 25.4693 27.0625 25.3864Z" fill="url(#paint21_radial_2396_118344)"/>
<path fill-rule="evenodd" clip-rule="evenodd" d="M28.8887 25.3864C28.8887 25.3035 28.9559 25.2363 29.0387 25.2363H30.5609C30.6437 25.2363 30.7109 25.3035 30.7109 25.3864C30.7109 25.4693 30.6437 25.5365 30.5609 25.5365H29.0387C28.9559 25.5365 28.8887 25.4693 28.8887 25.3864Z" fill="url(#paint22_radial_2396_118344)"/>
<path fill-rule="evenodd" clip-rule="evenodd" d="M30.916 25.3864C30.916 25.3035 30.9832 25.2363 31.0661 25.2363H31.8765C31.9593 25.2363 32.0265 25.3035 32.0265 25.3864C32.0265 25.4693 31.9593 25.5365 31.8765 25.5365H31.0661C30.9832 25.5365 30.916 25.4693 30.916 25.3864Z" fill="url(#paint23_radial_2396_118344)"/>
<path fill-rule="evenodd" clip-rule="evenodd" d="M27.0625 27.7658C27.0625 27.6829 27.1297 27.6157 27.2126 27.6157H28.0229C28.1058 27.6157 28.173 27.6829 28.173 27.7658C28.173 27.8487 28.1058 27.9159 28.0229 27.9159H27.2126C27.1297 27.9159 27.0625 27.8487 27.0625 27.7658Z" fill="url(#paint24_radial_2396_118344)"/>
<path fill-rule="evenodd" clip-rule="evenodd" d="M28.8887 27.7658C28.8887 27.6829 28.9559 27.6157 29.0387 27.6157H30.5609C30.6437 27.6157 30.7109 27.6829 30.7109 27.7658C30.7109 27.8487 30.6437 27.9159 30.5609 27.9159H29.0387C28.9559 27.9159 28.8887 27.8487 28.8887 27.7658Z" fill="url(#paint25_radial_2396_118344)"/>
<path fill-rule="evenodd" clip-rule="evenodd" d="M30.916 27.7658C30.916 27.6829 30.9832 27.6157 31.0661 27.6157H31.8765C31.9593 27.6157 32.0265 27.6829 32.0265 27.7658C32.0265 27.8487 31.9593 27.9159 31.8765 27.9159H31.0661C30.9832 27.9159 30.916 27.8487 30.916 27.7658Z" fill="url(#paint26_radial_2396_118344)"/>
<path fill-rule="evenodd" clip-rule="evenodd" d="M11.8535 28.2629C11.8535 28.18 11.9207 28.1128 12.0036 28.1128H12.814C12.8968 28.1128 12.964 28.18 12.964 28.2629C12.964 28.3457 12.8968 28.4129 12.814 28.4129H12.0036C11.9207 28.4129 11.8535 28.3457 11.8535 28.2629Z" fill="url(#paint27_radial_2396_118344)"/>
<path fill-rule="evenodd" clip-rule="evenodd" d="M13.8086 28.2629C13.8086 28.18 13.8758 28.1128 13.9587 28.1128H15.4808C15.5637 28.1128 15.6309 28.18 15.6309 28.2629C15.6309 28.3457 15.5637 28.4129 15.4808 28.4129H13.9587C13.8758 28.4129 13.8086 28.3457 13.8086 28.2629Z" fill="url(#paint28_radial_2396_118344)"/>
<path fill-rule="evenodd" clip-rule="evenodd" d="M15.8359 28.2629C15.8359 28.18 15.9031 28.1128 15.986 28.1128H16.7964C16.8793 28.1128 16.9464 28.18 16.9464 28.2629C16.9464 28.3457 16.8793 28.4129 16.7964 28.4129H15.986C15.9031 28.4129 15.8359 28.3457 15.8359 28.2629Z" fill="url(#paint29_radial_2396_118344)"/>
<path fill-rule="evenodd" clip-rule="evenodd" d="M27.0625 30.1496C27.0625 30.0667 27.1297 29.9995 27.2126 29.9995H28.0229C28.1058 29.9995 28.173 30.0667 28.173 30.1496C28.173 30.2325 28.1058 30.2996 28.0229 30.2996H27.2126C27.1297 30.2996 27.0625 30.2325 27.0625 30.1496Z" fill="url(#paint30_radial_2396_118344)"/>
<path fill-rule="evenodd" clip-rule="evenodd" d="M28.8887 30.1496C28.8887 30.0667 28.9559 29.9995 29.0387 29.9995H30.5609C30.6437 29.9995 30.7109 30.0667 30.7109 30.1496C30.7109 30.2325 30.6437 30.2996 30.5609 30.2996H29.0387C28.9559 30.2996 28.8887 30.2325 28.8887 30.1496Z" fill="url(#paint31_radial_2396_118344)"/>
<path fill-rule="evenodd" clip-rule="evenodd" d="M30.916 30.1496C30.916 30.0667 30.9832 29.9995 31.0661 29.9995H31.8765C31.9593 29.9995 32.0265 30.0667 32.0265 30.1496C32.0265 30.2325 31.9593 30.2996 31.8765 30.2996H31.0661C30.9832 30.2996 30.916 30.2325 30.916 30.1496Z" fill="url(#paint32_radial_2396_118344)"/>
<path fill-rule="evenodd" clip-rule="evenodd" d="M19.2422 10.7183H24.8033V12.1203H19.2422V10.7183ZM19.5423 11.0184V11.8202H24.5032V11.0184H19.5423Z" fill="url(#paint33_radial_2396_118344)"/>
<path fill-rule="evenodd" clip-rule="evenodd" d="M27.1055 16.6182H32.0663V17.8144H27.1055V16.6182ZM27.4056 16.9183V17.5143H31.7662V16.9183H27.4056Z" fill="url(#paint34_radial_2396_118344)"/>
<path fill-rule="evenodd" clip-rule="evenodd" d="M11.9355 20.6188C11.9355 20.5359 12.0027 20.4688 12.0856 20.4688H12.896C12.9789 20.4688 13.0461 20.5359 13.0461 20.6188C13.0461 20.7017 12.9789 20.7689 12.896 20.7689H12.0856C12.0027 20.7689 11.9355 20.7017 11.9355 20.6188Z" fill="url(#paint35_radial_2396_118344)"/>
<path fill-rule="evenodd" clip-rule="evenodd" d="M13.7617 20.6188C13.7617 20.5359 13.8289 20.4688 13.9118 20.4688H15.4339C15.5168 20.4688 15.584 20.5359 15.584 20.6188C15.584 20.7017 15.5168 20.7689 15.4339 20.7689H13.9118C13.8289 20.7689 13.7617 20.7017 13.7617 20.6188Z" fill="url(#paint36_radial_2396_118344)"/>
<path fill-rule="evenodd" clip-rule="evenodd" d="M15.7891 20.6188C15.7891 20.5359 15.8563 20.4688 15.9391 20.4688H16.7495C16.8324 20.4688 16.8996 20.5359 16.8996 20.6188C16.8996 20.7017 16.8324 20.7689 16.7495 20.7689H15.9391C15.8563 20.7689 15.7891 20.7017 15.7891 20.6188Z" fill="url(#paint37_radial_2396_118344)"/>
<path fill-rule="evenodd" clip-rule="evenodd" d="M11.9355 22.5217C11.9355 22.4388 12.0027 22.3716 12.0856 22.3716H12.896C12.9789 22.3716 13.0461 22.4388 13.0461 22.5217C13.0461 22.6045 12.9789 22.6717 12.896 22.6717H12.0856C12.0027 22.6717 11.9355 22.6045 11.9355 22.5217Z" fill="url(#paint38_radial_2396_118344)"/>
<path fill-rule="evenodd" clip-rule="evenodd" d="M13.7617 22.5217C13.7617 22.4388 13.8289 22.3716 13.9118 22.3716H15.4339C15.5168 22.3716 15.584 22.4388 15.584 22.5217C15.584 22.6045 15.5168 22.6717 15.4339 22.6717H13.9118C13.8289 22.6717 13.7617 22.6045 13.7617 22.5217Z" fill="url(#paint39_radial_2396_118344)"/>
<path fill-rule="evenodd" clip-rule="evenodd" d="M15.7891 22.5217C15.7891 22.4388 15.8563 22.3716 15.9391 22.3716H16.7495C16.8324 22.3716 16.8996 22.4388 16.8996 22.5217C16.8996 22.6045 16.8324 22.6717 16.7495 22.6717H15.9391C15.8563 22.6717 15.7891 22.6045 15.7891 22.5217Z" fill="url(#paint40_radial_2396_118344)"/>
<path fill-rule="evenodd" clip-rule="evenodd" d="M11.8379 26.3337C11.8379 26.2508 11.9051 26.1836 11.988 26.1836H13.5101C13.593 26.1836 13.6602 26.2508 13.6602 26.3337C13.6602 26.4165 13.593 26.4837 13.5101 26.4837H11.988C11.9051 26.4837 11.8379 26.4165 11.8379 26.3337Z" fill="url(#paint41_radial_2396_118344)"/>
<path fill-rule="evenodd" clip-rule="evenodd" d="M13.8652 26.3337C13.8652 26.2508 13.9324 26.1836 14.0153 26.1836H14.8257C14.9086 26.1836 14.9757 26.2508 14.9757 26.3337C14.9757 26.4165 14.9086 26.4837 14.8257 26.4837H14.0153C13.9324 26.4837 13.8652 26.4165 13.8652 26.3337Z" fill="url(#paint42_radial_2396_118344)"/>
<path fill-rule="evenodd" clip-rule="evenodd" d="M13.8438 24.4299C13.8438 24.347 13.9109 24.2798 13.9938 24.2798H14.8042C14.8871 24.2798 14.9543 24.347 14.9543 24.4299C14.9543 24.5127 14.8871 24.5799 14.8042 24.5799H13.9938C13.9109 24.5799 13.8438 24.5127 13.8438 24.4299Z" fill="url(#paint43_radial_2396_118344)"/>
<path fill-rule="evenodd" clip-rule="evenodd" d="M15.791 24.4299C15.791 24.347 15.8582 24.2798 15.9411 24.2798H16.7515C16.8343 24.2798 16.9015 24.347 16.9015 24.4299C16.9015 24.5127 16.8343 24.5799 16.7515 24.5799H15.9411C15.8582 24.5799 15.791 24.5127 15.791 24.4299Z" fill="url(#paint44_radial_2396_118344)"/>
<path fill-rule="evenodd" clip-rule="evenodd" d="M11.8535 30.1496C11.8535 30.0667 11.9207 29.9995 12.0036 29.9995H12.814C12.8968 29.9995 12.964 30.0667 12.964 30.1496C12.964 30.2325 12.8968 30.2996 12.814 30.2996H12.0036C11.9207 30.2996 11.8535 30.2325 11.8535 30.1496Z" fill="url(#paint45_radial_2396_118344)"/>
<path fill-rule="evenodd" clip-rule="evenodd" d="M13.8008 30.1496C13.8008 30.0667 13.868 29.9995 13.9508 29.9995H14.7612C14.8441 29.9995 14.9113 30.0667 14.9113 30.1496C14.9113 30.2325 14.8441 30.2996 14.7612 30.2996H13.9508C13.868 30.2996 13.8008 30.2325 13.8008 30.1496Z" fill="url(#paint46_radial_2396_118344)"/>
<path fill-rule="evenodd" clip-rule="evenodd" d="M11.9785 16.6182H16.9436V17.8144H11.9785V16.6182ZM12.2787 16.9183V17.5143H16.6435V16.9183H12.2787Z" fill="url(#paint47_radial_2396_118344)"/>
<path fill-rule="evenodd" clip-rule="evenodd" d="M14.2802 32.8979H35.2169V33.9999H13.6113V33.6997H34.9168V33.1981H14.2802V32.8979Z" fill="url(#paint48_radial_2396_118344)"/>
<path fill-rule="evenodd" clip-rule="evenodd" d="M29.4464 32.8979H9.00005V33.9999H30.1152V33.6997H9.30019V33.1981H29.4464V32.8979Z" fill="url(#paint49_radial_2396_118344)"/>
<path fill-rule="evenodd" clip-rule="evenodd" d="M15.8672 26.3376C15.8672 26.2547 15.9344 26.1875 16.0173 26.1875H16.2006C16.2834 26.1875 16.3506 26.2547 16.3506 26.3376C16.3506 26.4204 16.2834 26.4876 16.2006 26.4876H16.0173C15.9344 26.4876 15.8672 26.4204 15.8672 26.3376ZM16.4171 26.3376C16.4171 26.2547 16.4843 26.1875 16.5672 26.1875H16.7504C16.8333 26.1875 16.9005 26.2547 16.9005 26.3376C16.9005 26.4204 16.8333 26.4876 16.7504 26.4876H16.5672C16.4843 26.4876 16.4171 26.4204 16.4171 26.3376Z" fill="url(#paint50_radial_2396_118344)"/>
<path fill-rule="evenodd" clip-rule="evenodd" d="M11.9395 24.4469C11.9395 24.3641 12.0066 24.2969 12.0895 24.2969H12.2728C12.3557 24.2969 12.4229 24.3641 12.4229 24.4469C12.4229 24.5298 12.3557 24.597 12.2728 24.597H12.0895C12.0066 24.597 11.9395 24.5298 11.9395 24.4469ZM12.4893 24.4469C12.4893 24.3641 12.5565 24.2969 12.6394 24.2969H12.8227C12.9056 24.2969 12.9728 24.3641 12.9728 24.4469C12.9728 24.5298 12.9056 24.597 12.8227 24.597H12.6394C12.5565 24.597 12.4893 24.5298 12.4893 24.4469Z" fill="url(#paint51_radial_2396_118344)"/>
<path fill-rule="evenodd" clip-rule="evenodd" d="M15.8672 28.2458C15.8672 28.1629 15.9344 28.0957 16.0173 28.0957H16.2006C16.2834 28.0957 16.3506 28.1629 16.3506 28.2458C16.3506 28.3287 16.2834 28.3958 16.2006 28.3958H16.0173C15.9344 28.3958 15.8672 28.3287 15.8672 28.2458ZM16.4171 28.2458C16.4171 28.1629 16.4843 28.0957 16.5672 28.0957H16.7504C16.8333 28.0957 16.9005 28.1629 16.9005 28.2458C16.9005 28.3287 16.8333 28.3958 16.7504 28.3958H16.5672C16.4843 28.3958 16.4171 28.3287 16.4171 28.2458Z" fill="url(#paint52_radial_2396_118344)"/>
<path fill-rule="evenodd" clip-rule="evenodd" d="M15.627 30.1496C15.627 30.0667 15.6941 29.9995 15.777 29.9995H16.0203C16.1032 29.9995 16.1704 30.0667 16.1704 30.1496C16.1704 30.2325 16.1032 30.2996 16.0203 30.2996H15.777C15.6941 30.2996 15.627 30.2325 15.627 30.1496ZM16.3569 30.1496C16.3569 30.0667 16.4241 29.9995 16.507 29.9995H16.7503C16.8332 29.9995 16.9004 30.0667 16.9004 30.1496C16.9004 30.2325 16.8332 30.2996 16.7503 30.2996H16.507C16.4241 30.2996 16.3569 30.2325 16.3569 30.1496Z" fill="url(#paint53_radial_2396_118344)"/>
<path d="M31.472 14.9676C31.7611 14.963 31.9916 14.7215 31.9869 14.4283C31.9822 14.135 31.7441 13.901 31.455 13.9057C31.166 13.9103 30.9354 14.1518 30.9401 14.445C30.9448 14.7383 31.183 14.9723 31.472 14.9676Z" fill="url(#paint54_radial_2396_118344)"/>
<path d="M34.4877 16.7084C34.7767 16.7037 35.0073 16.4622 35.0026 16.169C34.9979 15.8757 34.7597 15.6418 34.4707 15.6464C34.1816 15.651 33.9511 15.8925 33.9558 16.1858C33.9605 16.479 34.1986 16.713 34.4877 16.7084Z" fill="url(#paint55_radial_2396_118344)"/>
<path d="M34.4076 13.2943C34.6967 13.2897 34.9272 13.0482 34.9225 12.7549C34.9178 12.4617 34.6796 12.2277 34.3906 12.2323C34.1015 12.237 33.871 12.4784 33.8757 12.7717C33.8804 13.0649 34.1185 13.2989 34.4076 13.2943Z" fill="url(#paint56_radial_2396_118344)"/>
<defs>
<radialGradient id="paint0_radial_2396_118344" cx="0" cy="0" r="1" gradientUnits="userSpaceOnUse" gradientTransform="translate(29.5703 24.0328) rotate(89.8825) scale(9.16547 4.34147)">
<stop stop-color="#065EA6"/>
<stop offset="1" stop-color="#092E4C"/>
</radialGradient>
<radialGradient id="paint1_radial_2396_118344" cx="0" cy="0" r="1" gradientUnits="userSpaceOnUse" gradientTransform="translate(14.4238 24.0328) rotate(89.8825) scale(9.16547 4.34147)">
<stop stop-color="#065EA6"/>
<stop offset="1" stop-color="#092E4C"/>
</radialGradient>
<radialGradient id="paint2_radial_2396_118344" cx="0" cy="0" r="1" gradientUnits="userSpaceOnUse" gradientTransform="translate(22.0014 20.6894) rotate(89.9033) scale(12.5089 4.87944)">
<stop stop-color="#065EA6"/>
<stop offset="1" stop-color="#092E4C"/>
</radialGradient>
<radialGradient id="paint3_radial_2396_118344" cx="0" cy="0" r="1" gradientUnits="userSpaceOnUse" gradientTransform="translate(19.4735 13.6171) rotate(89.933) scale(0.651085 0.175972)">
<stop stop-color="#065EA6"/>
<stop offset="1" stop-color="#092E4C"/>
</radialGradient>
<radialGradient id="paint4_radial_2396_118344" cx="0" cy="0" r="1" gradientUnits="userSpaceOnUse" gradientTransform="translate(19.4735 21.3657) rotate(89.9948) scale(8.39371 0.175972)">
<stop stop-color="#065EA6"/>
<stop offset="1" stop-color="#092E4C"/>
</radialGradient>
<radialGradient id="paint5_radial_2396_118344" cx="0" cy="0" r="1" gradientUnits="userSpaceOnUse" gradientTransform="translate(19.4735 30.6567) rotate(89.933) scale(0.651084 0.175972)">
<stop stop-color="#065EA6"/>
<stop offset="1" stop-color="#092E4C"/>
</radialGradient>
<radialGradient id="paint6_radial_2396_118344" cx="0" cy="0" r="1" gradientUnits="userSpaceOnUse" gradientTransform="translate(21.1747 13.6171) rotate(89.933) scale(0.651085 0.175972)">
<stop stop-color="#065EA6"/>
<stop offset="1" stop-color="#092E4C"/>
</radialGradient>
<radialGradient id="paint7_radial_2396_118344" cx="0" cy="0" r="1" gradientUnits="userSpaceOnUse" gradientTransform="translate(21.1747 21.3657) rotate(89.9948) scale(8.39371 0.175972)">
<stop stop-color="#065EA6"/>
<stop offset="1" stop-color="#092E4C"/>
</radialGradient>
<radialGradient id="paint8_radial_2396_118344" cx="0" cy="0" r="1" gradientUnits="userSpaceOnUse" gradientTransform="translate(21.1747 30.6567) rotate(89.933) scale(0.651084 0.175972)">
<stop stop-color="#065EA6"/>
<stop offset="1" stop-color="#092E4C"/>
</radialGradient>
<radialGradient id="paint9_radial_2396_118344" cx="0" cy="0" r="1" gradientUnits="userSpaceOnUse" gradientTransform="translate(22.8739 13.6171) rotate(89.933) scale(0.651085 0.175972)">
<stop stop-color="#065EA6"/>
<stop offset="1" stop-color="#092E4C"/>
</radialGradient>
<radialGradient id="paint10_radial_2396_118344" cx="0" cy="0" r="1" gradientUnits="userSpaceOnUse" gradientTransform="translate(22.8739 21.3657) rotate(89.9948) scale(8.39371 0.175972)">
<stop stop-color="#065EA6"/>
<stop offset="1" stop-color="#092E4C"/>
</radialGradient>
<radialGradient id="paint11_radial_2396_118344" cx="0" cy="0" r="1" gradientUnits="userSpaceOnUse" gradientTransform="translate(22.8739 30.6567) rotate(89.933) scale(0.651084 0.175972)">
<stop stop-color="#065EA6"/>
<stop offset="1" stop-color="#092E4C"/>
</radialGradient>
<radialGradient id="paint12_radial_2396_118344" cx="0" cy="0" r="1" gradientUnits="userSpaceOnUse" gradientTransform="translate(24.5751 13.6171) rotate(89.933) scale(0.651085 0.175972)">
<stop stop-color="#065EA6"/>
<stop offset="1" stop-color="#092E4C"/>
</radialGradient>
<radialGradient id="paint13_radial_2396_118344" cx="0" cy="0" r="1" gradientUnits="userSpaceOnUse" gradientTransform="translate(24.5751 21.3657) rotate(89.9948) scale(8.39371 0.175972)">
<stop stop-color="#065EA6"/>
<stop offset="1" stop-color="#092E4C"/>
</radialGradient>
<radialGradient id="paint14_radial_2396_118344" cx="0" cy="0" r="1" gradientUnits="userSpaceOnUse" gradientTransform="translate(24.5751 30.6567) rotate(89.933) scale(0.651084 0.175972)">
<stop stop-color="#065EA6"/>
<stop offset="1" stop-color="#092E4C"/>
</radialGradient>
<radialGradient id="paint15_radial_2396_118344" cx="0" cy="0" r="1" gradientUnits="userSpaceOnUse" gradientTransform="translate(27.6149 20.5929) rotate(89.0824) scale(0.175991 0.651012)">
<stop stop-color="#065EA6"/>
<stop offset="1" stop-color="#092E4C"/>
</radialGradient>
<radialGradient id="paint16_radial_2396_118344" cx="0" cy="0" r="1" gradientUnits="userSpaceOnUse" gradientTransform="translate(29.7952 20.5929) rotate(88.4944) scale(0.176029 1.06803)">
<stop stop-color="#065EA6"/>
<stop offset="1" stop-color="#092E4C"/>
</radialGradient>
<radialGradient id="paint17_radial_2396_118344" cx="0" cy="0" r="1" gradientUnits="userSpaceOnUse" gradientTransform="translate(31.4685 20.5929) rotate(89.0824) scale(0.175991 0.651013)">
<stop stop-color="#065EA6"/>
<stop offset="1" stop-color="#092E4C"/>
</radialGradient>
<radialGradient id="paint18_radial_2396_118344" cx="0" cy="0" r="1" gradientUnits="userSpaceOnUse" gradientTransform="translate(27.6149 22.9767) rotate(89.0824) scale(0.175991 0.651012)">
<stop stop-color="#065EA6"/>
<stop offset="1" stop-color="#092E4C"/>
</radialGradient>
<radialGradient id="paint19_radial_2396_118344" cx="0" cy="0" r="1" gradientUnits="userSpaceOnUse" gradientTransform="translate(29.7952 22.9767) rotate(88.4944) scale(0.176029 1.06803)">
<stop stop-color="#065EA6"/>
<stop offset="1" stop-color="#092E4C"/>
</radialGradient>
<radialGradient id="paint20_radial_2396_118344" cx="0" cy="0" r="1" gradientUnits="userSpaceOnUse" gradientTransform="translate(31.4685 22.9767) rotate(89.0824) scale(0.175991 0.651013)">
<stop stop-color="#065EA6"/>
<stop offset="1" stop-color="#092E4C"/>
</radialGradient>
<radialGradient id="paint21_radial_2396_118344" cx="0" cy="0" r="1" gradientUnits="userSpaceOnUse" gradientTransform="translate(27.6149 25.3605) rotate(89.0824) scale(0.175991 0.651012)">
<stop stop-color="#065EA6"/>
<stop offset="1" stop-color="#092E4C"/>
</radialGradient>
<radialGradient id="paint22_radial_2396_118344" cx="0" cy="0" r="1" gradientUnits="userSpaceOnUse" gradientTransform="translate(29.7952 25.3605) rotate(88.4944) scale(0.176029 1.06803)">
<stop stop-color="#065EA6"/>
<stop offset="1" stop-color="#092E4C"/>
</radialGradient>
<radialGradient id="paint23_radial_2396_118344" cx="0" cy="0" r="1" gradientUnits="userSpaceOnUse" gradientTransform="translate(31.4685 25.3605) rotate(89.0824) scale(0.175991 0.651013)">
<stop stop-color="#065EA6"/>
<stop offset="1" stop-color="#092E4C"/>
</radialGradient>
<radialGradient id="paint24_radial_2396_118344" cx="0" cy="0" r="1" gradientUnits="userSpaceOnUse" gradientTransform="translate(27.6149 27.7399) rotate(89.0824) scale(0.175991 0.651012)">
<stop stop-color="#065EA6"/>
<stop offset="1" stop-color="#092E4C"/>
</radialGradient>
<radialGradient id="paint25_radial_2396_118344" cx="0" cy="0" r="1" gradientUnits="userSpaceOnUse" gradientTransform="translate(29.7952 27.7399) rotate(88.4944) scale(0.176029 1.06803)">
<stop stop-color="#065EA6"/>
<stop offset="1" stop-color="#092E4C"/>
</radialGradient>
<radialGradient id="paint26_radial_2396_118344" cx="0" cy="0" r="1" gradientUnits="userSpaceOnUse" gradientTransform="translate(31.4685 27.7399) rotate(89.0824) scale(0.175991 0.651013)">
<stop stop-color="#065EA6"/>
<stop offset="1" stop-color="#092E4C"/>
</radialGradient>
<radialGradient id="paint27_radial_2396_118344" cx="0" cy="0" r="1" gradientUnits="userSpaceOnUse" gradientTransform="translate(12.4059 28.237) rotate(89.0824) scale(0.175991 0.651012)">
<stop stop-color="#065EA6"/>
<stop offset="1" stop-color="#092E4C"/>
</radialGradient>
<radialGradient id="paint28_radial_2396_118344" cx="0" cy="0" r="1" gradientUnits="userSpaceOnUse" gradientTransform="translate(14.7151 28.237) rotate(88.4944) scale(0.176029 1.06803)">
<stop stop-color="#065EA6"/>
<stop offset="1" stop-color="#092E4C"/>
</radialGradient>
<radialGradient id="paint29_radial_2396_118344" cx="0" cy="0" r="1" gradientUnits="userSpaceOnUse" gradientTransform="translate(16.3884 28.237) rotate(89.0824) scale(0.175991 0.651013)">
<stop stop-color="#065EA6"/>
<stop offset="1" stop-color="#092E4C"/>
</radialGradient>
<radialGradient id="paint30_radial_2396_118344" cx="0" cy="0" r="1" gradientUnits="userSpaceOnUse" gradientTransform="translate(27.6149 30.1237) rotate(89.0824) scale(0.175991 0.651012)">
<stop stop-color="#065EA6"/>
<stop offset="1" stop-color="#092E4C"/>
</radialGradient>
<radialGradient id="paint31_radial_2396_118344" cx="0" cy="0" r="1" gradientUnits="userSpaceOnUse" gradientTransform="translate(29.7952 30.1237) rotate(88.4944) scale(0.176029 1.06803)">
<stop stop-color="#065EA6"/>
<stop offset="1" stop-color="#092E4C"/>
</radialGradient>
<radialGradient id="paint32_radial_2396_118344" cx="0" cy="0" r="1" gradientUnits="userSpaceOnUse" gradientTransform="translate(31.4685 30.1237) rotate(89.0824) scale(0.175991 0.651013)">
<stop stop-color="#065EA6"/>
<stop offset="1" stop-color="#092E4C"/>
</radialGradient>
<radialGradient id="paint33_radial_2396_118344" cx="0" cy="0" r="1" gradientUnits="userSpaceOnUse" gradientTransform="translate(22.0086 11.2983) rotate(89.0163) scale(0.822146 3.26003)">
<stop stop-color="#065EA6"/>
<stop offset="1" stop-color="#092E4C"/>
</radialGradient>
<radialGradient id="paint34_radial_2396_118344" cx="0" cy="0" r="1" gradientUnits="userSpaceOnUse" gradientTransform="translate(29.5733 17.1131) rotate(88.9715) scale(0.701474 2.9081)">
<stop stop-color="#065EA6"/>
<stop offset="1" stop-color="#092E4C"/>
</radialGradient>
<radialGradient id="paint35_radial_2396_118344" cx="0" cy="0" r="1" gradientUnits="userSpaceOnUse" gradientTransform="translate(12.488 20.5929) rotate(89.0824) scale(0.175991 0.651013)">
<stop stop-color="#065EA6"/>
<stop offset="1" stop-color="#092E4C"/>
</radialGradient>
<radialGradient id="paint36_radial_2396_118344" cx="0" cy="0" r="1" gradientUnits="userSpaceOnUse" gradientTransform="translate(14.6682 20.5929) rotate(88.4944) scale(0.176029 1.06803)">
<stop stop-color="#065EA6"/>
<stop offset="1" stop-color="#092E4C"/>
</radialGradient>
<radialGradient id="paint37_radial_2396_118344" cx="0" cy="0" r="1" gradientUnits="userSpaceOnUse" gradientTransform="translate(16.3415 20.5929) rotate(89.0824) scale(0.175991 0.651013)">
<stop stop-color="#065EA6"/>
<stop offset="1" stop-color="#092E4C"/>
</radialGradient>
<radialGradient id="paint38_radial_2396_118344" cx="0" cy="0" r="1" gradientUnits="userSpaceOnUse" gradientTransform="translate(12.488 22.4958) rotate(89.0824) scale(0.175991 0.651013)">
<stop stop-color="#065EA6"/>
<stop offset="1" stop-color="#092E4C"/>
</radialGradient>
<radialGradient id="paint39_radial_2396_118344" cx="0" cy="0" r="1" gradientUnits="userSpaceOnUse" gradientTransform="translate(14.6682 22.4958) rotate(88.4944) scale(0.176029 1.06803)">
<stop stop-color="#065EA6"/>
<stop offset="1" stop-color="#092E4C"/>
</radialGradient>
<radialGradient id="paint40_radial_2396_118344" cx="0" cy="0" r="1" gradientUnits="userSpaceOnUse" gradientTransform="translate(16.3415 22.4958) rotate(89.0824) scale(0.175991 0.651013)">
<stop stop-color="#065EA6"/>
<stop offset="1" stop-color="#092E4C"/>
</radialGradient>
<radialGradient id="paint41_radial_2396_118344" cx="0" cy="0" r="1" gradientUnits="userSpaceOnUse" gradientTransform="translate(12.7444 26.3078) rotate(88.4944) scale(0.176029 1.06803)">
<stop stop-color="#065EA6"/>
<stop offset="1" stop-color="#092E4C"/>
</radialGradient>
<radialGradient id="paint42_radial_2396_118344" cx="0" cy="0" r="1" gradientUnits="userSpaceOnUse" gradientTransform="translate(14.4177 26.3078) rotate(89.0824) scale(0.175991 0.651013)">
<stop stop-color="#065EA6"/>
<stop offset="1" stop-color="#092E4C"/>
</radialGradient>
<radialGradient id="paint43_radial_2396_118344" cx="0" cy="0" r="1" gradientUnits="userSpaceOnUse" gradientTransform="translate(14.3962 24.404) rotate(89.0824) scale(0.175991 0.651013)">
<stop stop-color="#065EA6"/>
<stop offset="1" stop-color="#092E4C"/>
</radialGradient>
<radialGradient id="paint44_radial_2396_118344" cx="0" cy="0" r="1" gradientUnits="userSpaceOnUse" gradientTransform="translate(16.3435 24.404) rotate(89.0824) scale(0.175991 0.651013)">
<stop stop-color="#065EA6"/>
<stop offset="1" stop-color="#092E4C"/>
</radialGradient>
<radialGradient id="paint45_radial_2396_118344" cx="0" cy="0" r="1" gradientUnits="userSpaceOnUse" gradientTransform="translate(12.406 30.1237) rotate(89.0824) scale(0.175991 0.651013)">
<stop stop-color="#065EA6"/>
<stop offset="1" stop-color="#092E4C"/>
</radialGradient>
<radialGradient id="paint46_radial_2396_118344" cx="0" cy="0" r="1" gradientUnits="userSpaceOnUse" gradientTransform="translate(14.3532 30.1237) rotate(89.0824) scale(0.175991 0.651013)">
<stop stop-color="#065EA6"/>
<stop offset="1" stop-color="#092E4C"/>
</radialGradient>
<radialGradient id="paint47_radial_2396_118344" cx="0" cy="0" r="1" gradientUnits="userSpaceOnUse" gradientTransform="translate(14.4485 17.1131) rotate(88.9707) scale(0.701474 2.91061)">
<stop stop-color="#065EA6"/>
<stop offset="1" stop-color="#092E4C"/>
</radialGradient>
<radialGradient id="paint48_radial_2396_118344" cx="0" cy="0" r="1" gradientUnits="userSpaceOnUse" gradientTransform="translate(24.3593 33.3538) rotate(85.1485) scale(0.64838 12.6221)">
<stop stop-color="#065EA6"/>
<stop offset="1" stop-color="#092E4C"/>
</radialGradient>
<radialGradient id="paint49_radial_2396_118344" cx="0" cy="0" r="1" gradientUnits="userSpaceOnUse" gradientTransform="translate(19.6112 33.3538) rotate(94.7419) scale(0.648276 12.3376)">
<stop stop-color="#065EA6"/>
<stop offset="1" stop-color="#092E4C"/>
</radialGradient>
<radialGradient id="paint50_radial_2396_118344" cx="0" cy="0" r="1" gradientUnits="userSpaceOnUse" gradientTransform="translate(16.3812 26.3117) rotate(89.1461) scale(0.175988 0.605779)">
<stop stop-color="#065EA6"/>
<stop offset="1" stop-color="#092E4C"/>
</radialGradient>
<radialGradient id="paint51_radial_2396_118344" cx="0" cy="0" r="1" gradientUnits="userSpaceOnUse" gradientTransform="translate(12.4535 24.421) rotate(89.1461) scale(0.175988 0.605779)">
<stop stop-color="#065EA6"/>
<stop offset="1" stop-color="#092E4C"/>
</radialGradient>
<radialGradient id="paint52_radial_2396_118344" cx="0" cy="0" r="1" gradientUnits="userSpaceOnUse" gradientTransform="translate(16.3812 28.2199) rotate(89.1461) scale(0.175988 0.605779)">
<stop stop-color="#065EA6"/>
<stop offset="1" stop-color="#092E4C"/>
</radialGradient>
<radialGradient id="paint53_radial_2396_118344" cx="0" cy="0" r="1" gradientUnits="userSpaceOnUse" gradientTransform="translate(16.2604 30.1237) rotate(88.9478) scale(0.175998 0.746498)">
<stop stop-color="#065EA6"/>
<stop offset="1" stop-color="#092E4C"/>
</radialGradient>
<radialGradient id="paint54_radial_2396_118344" cx="0" cy="0" r="1" gradientUnits="userSpaceOnUse" gradientTransform="translate(31.4653 14.4359) rotate(55.503) scale(0.528689 0.525792)">
<stop stop-color="#0F5BAD"/>
<stop offset="0.28" stop-color="#0B5097"/>
<stop offset="0.84" stop-color="#023560"/>
<stop offset="1" stop-color="#002D4F"/>
</radialGradient>
<radialGradient id="paint55_radial_2396_118344" cx="0" cy="0" r="1" gradientUnits="userSpaceOnUse" gradientTransform="translate(34.4824 16.1774) rotate(55.5031) scale(0.528689 0.525792)">
<stop stop-color="#0F5BAD"/>
<stop offset="0.28" stop-color="#0B5097"/>
<stop offset="0.84" stop-color="#023560"/>
<stop offset="1" stop-color="#002D4F"/>
</radialGradient>
<radialGradient id="paint56_radial_2396_118344" cx="0" cy="0" r="1" gradientUnits="userSpaceOnUse" gradientTransform="translate(34.4005 12.763) rotate(55.5031) scale(0.528689 0.525792)">
<stop stop-color="#0F5BAD"/>
<stop offset="0.28" stop-color="#0B5097"/>
<stop offset="0.84" stop-color="#023560"/>
<stop offset="1" stop-color="#002D4F"/>
</radialGradient>
</defs>
</svg>
