<svg id="Grupo_2" data-name="Grupo 2" xmlns="http://www.w3.org/2000/svg" xmlns:xlink="http://www.w3.org/1999/xlink" width="100.23" height="26.069" viewBox="0 0 100.23 26.069">
  <defs>
    <clipPath id="clip-path">
      <rect id="Rect치ngulo_99" data-name="Rect치ngulo 99" width="100.23" height="26.069" fill="#fff"/>
    </clipPath>
  </defs>
  <g id="Grupo_1" data-name="Grupo 1" clip-path="url(#clip-path)">
    <path id="Trazado_2" data-name="Trazado 2" d="M798.178,32.48c-.413-.036-.821-.065-1.226-.091h0l-.237-.014-.177-.012v0l-.133-.007a31.523,31.523,0,0,0,2.076,4.33c7.415-.113,13.337.45,13.366,1.871.017.826-1.971,1.608-5.129,2.176l-.08.13c3.818-.442,6.356-1.46,6.476-2.845.2-2.326-6.486-4.806-14.937-5.539" transform="translate(-712.889 -28.964)" fill="#00ae42"/>
    <path id="Trazado_3" data-name="Trazado 3" d="M765.667.924c.64-.422,2.17.638,4.118,2.686l.227.024c-2.26-2.692-4.307-4.1-5.477-3.5-2.075,1.07-.606,8.05,3.281,15.59q.216.418.435.826h0l.3.556.037.068.1.178a41.94,41.94,0,0,0,2.453-4.239C767.13,6.954,764.487,1.7,765.667.924" transform="translate(-683.518 -0.001)" fill="#ffcd00"/>
    <path id="Trazado_4" data-name="Trazado 4" d="M794.562,83.548c-3.058,6.862-6.113,12.091-7.426,11.511-.784-.346-.614-2.623.286-5.91h0l-.06-.125h0c-1.317,3.818-1.515,6.7-.273,7.413,2.023,1.165,7.1-3.849,11.331-11.2q.385-.668.742-1.33c-1.278-.176-2.842-.294-4.6-.358" transform="translate(-703.806 -74.787)" fill="#3cb4e5"/>
    <path id="Trazado_5" data-name="Trazado 5" d="M5.225,32.238q-1.289,0-2.567-.079A18.168,18.168,0,0,1,0,31.786v-15.2a22.6,22.6,0,0,1,2.375-.305q1.289-.1,2.4-.1a16.341,16.341,0,0,1,2.748.215,6.518,6.518,0,0,1,2.16.735A3.855,3.855,0,0,1,11.1,18.5a4,4,0,0,1,.509,2.093,3.321,3.321,0,0,1-1.81,2.963,3.706,3.706,0,0,1,2.036,1.538,4.425,4.425,0,0,1,.543,2.194,4.214,4.214,0,0,1-1.8,3.71,9.424,9.424,0,0,1-5.35,1.244M3.438,22.512H5.157a4.786,4.786,0,0,0,2.33-.419,1.449,1.449,0,0,0,.7-1.346,1.383,1.383,0,0,0-.724-1.335,4.654,4.654,0,0,0-2.126-.385q-.453,0-.973.011t-.927.057Zm0,2.692v4.049q.384.046.837.068t1,.023a6.111,6.111,0,0,0,2.556-.452A1.678,1.678,0,0,0,8.8,27.217a1.64,1.64,0,0,0-.814-1.55,4.773,4.773,0,0,0-2.33-.464Z" transform="translate(0 -14.481)" fill="#fff"/>
    <path id="Trazado_6" data-name="Trazado 6" d="M124.462,57.262a7.274,7.274,0,0,1,.486-2.771,5.937,5.937,0,0,1,1.278-1.979,5.316,5.316,0,0,1,1.821-1.2,5.7,5.7,0,0,1,2.115-.407,5.258,5.258,0,0,1,4,1.55,6.386,6.386,0,0,1,1.47,4.558q0,.294-.023.645t-.045.622h-7.646a2.238,2.238,0,0,0,.973,1.651,3.909,3.909,0,0,0,2.307.611,9.748,9.748,0,0,0,1.821-.17,6.869,6.869,0,0,0,1.459-.419l.452,2.737a4.663,4.663,0,0,1-.724.271,9.484,9.484,0,0,1-1.007.238q-.554.1-1.187.17a11.873,11.873,0,0,1-1.267.068,7.5,7.5,0,0,1-2.794-.475,5.437,5.437,0,0,1-1.968-1.3,5.16,5.16,0,0,1-1.154-1.957,7.749,7.749,0,0,1-.373-2.443m7.917-1.289a3.5,3.5,0,0,0-.147-.837,2.1,2.1,0,0,0-.385-.724,2.053,2.053,0,0,0-.656-.52,2.137,2.137,0,0,0-.984-.2,2.264,2.264,0,0,0-.973.192,2.012,2.012,0,0,0-.679.509,2.279,2.279,0,0,0-.419.735,4.808,4.808,0,0,0-.215.848Z" transform="translate(-111.41 -45.568)" fill="#fff"/>
    <path id="Trazado_7" data-name="Trazado 7" d="M241.8,21.035l3.37-.543V24h4.049v2.8h-4.049v4.185a3.328,3.328,0,0,0,.373,1.7,1.6,1.6,0,0,0,1.5.633,6.429,6.429,0,0,0,1.12-.1,5.744,5.744,0,0,0,1.052-.283l.475,2.624a9.544,9.544,0,0,1-1.357.43,7.917,7.917,0,0,1-1.832.181,6.031,6.031,0,0,1-2.285-.373,3.583,3.583,0,0,1-1.448-1.04,3.872,3.872,0,0,1-.758-1.617,9.537,9.537,0,0,1-.215-2.1Z" transform="translate(-216.448 -18.343)" fill="#fff"/>
    <path id="Trazado_8" data-name="Trazado 8" d="M336.888,16.178a9.81,9.81,0,0,1,5.384,1.233,4.47,4.47,0,0,1,1.878,4.038,4.53,4.53,0,0,1-1.9,4.083,9.834,9.834,0,0,1-5.429,1.255h-1.108v5.248h-3.529V16.585a20.022,20.022,0,0,1,2.443-.317q1.289-.09,2.262-.09m.226,3.009q-.385,0-.758.023t-.645.045v4.524h1.108a6.006,6.006,0,0,0,2.76-.5,1.912,1.912,0,0,0,.927-1.855,2.226,2.226,0,0,0-.238-1.086,1.807,1.807,0,0,0-.679-.69,3.059,3.059,0,0,0-1.074-.362,8.866,8.866,0,0,0-1.4-.1" transform="translate(-297.348 -14.481)" fill="#fff"/>
    <path id="Trazado_9" data-name="Trazado 9" d="M460.748,17.78a8.429,8.429,0,0,1-2.386-.317,3.527,3.527,0,0,1-1.448-.826,2.734,2.734,0,0,1-.724-1.289A6.953,6.953,0,0,1,456,13.64V.543L459.368,0V12.962a4.44,4.44,0,0,0,.068.814,1.4,1.4,0,0,0,.26.611,1.373,1.373,0,0,0,.554.407,3.033,3.033,0,0,0,.973.2Z" transform="translate(-408.179)" fill="#fff"/>
    <path id="Trazado_10" data-name="Trazado 10" d="M517.362,50.906a7.806,7.806,0,0,1,2.488.339,3.868,3.868,0,0,1,1.595.973,3.581,3.581,0,0,1,.848,1.538,7.6,7.6,0,0,1,.249,2.013v7.012q-.724.158-2.013.373a19.347,19.347,0,0,1-3.122.215,9.891,9.891,0,0,1-2.092-.2A4.538,4.538,0,0,1,513.7,62.5a3.049,3.049,0,0,1-1.04-1.21,4.174,4.174,0,0,1-.362-1.832,3.47,3.47,0,0,1,.419-1.764,3.221,3.221,0,0,1,1.12-1.154,5.07,5.07,0,0,1,1.606-.622,9.023,9.023,0,0,1,1.878-.192,10.729,10.729,0,0,1,1.165.057,5.249,5.249,0,0,1,.826.147v-.317a1.867,1.867,0,0,0-.52-1.38,2.521,2.521,0,0,0-1.81-.52,11.559,11.559,0,0,0-1.7.124,7.3,7.3,0,0,0-1.448.351l-.43-2.714q.294-.09.735-.192t.961-.181q.52-.079,1.1-.136t1.165-.057m.271,9.863q.5,0,.95-.023a6.528,6.528,0,0,0,.724-.068V58.122q-.2-.045-.611-.09a6.813,6.813,0,0,0-.746-.045,6.722,6.722,0,0,0-.893.056,2.346,2.346,0,0,0-.735.215,1.26,1.26,0,0,0-.5.43,1.2,1.2,0,0,0-.181.679,1.156,1.156,0,0,0,.532,1.1,2.937,2.937,0,0,0,1.459.305" transform="translate(-458.572 -45.568)" fill="#fff"/>
    <path id="Trazado_11" data-name="Trazado 11" d="M628.537,53.926q-1.021,3.439-2.132,6.447t-2.427,5.836a13.272,13.272,0,0,1-.951,1.731,5.337,5.337,0,0,1-1.042,1.176,3.674,3.674,0,0,1-1.28.679,5.8,5.8,0,0,1-1.665.215,6.828,6.828,0,0,1-1.461-.147,6.549,6.549,0,0,1-1.1-.328l.588-2.692a5.769,5.769,0,0,0,.928.249,5.226,5.226,0,0,0,.86.068,1.884,1.884,0,0,0,1.391-.486,3.917,3.917,0,0,0,.826-1.346q-1.155-2.262-2.309-5.078a63.167,63.167,0,0,1-2.172-6.322h3.574q.227.882.534,1.912t.647,2.081q.34,1.052.693,2.047t.671,1.809q.295-.814.613-1.809t.625-2.047q.306-1.052.591-2.081t.511-1.912Z" transform="translate(-551.832 -48.271)" fill="#fff"/>
    <path id="Trazado_12" data-name="Trazado 12" d="M85.44,208.318H85.8l1.558,3.442h-.415l-.4-.9h-1.86l-.405.9h-.4Zm.952,2.188-.776-1.738-.781,1.738Z" transform="translate(-75.086 -186.472)" fill="#fff"/>
    <path id="Trazado_13" data-name="Trazado 13" d="M122.86,216.613h.376v.508a1.135,1.135,0,0,1,.967-.562,1.231,1.231,0,0,1,1.206,1.309v.01a1.236,1.236,0,0,1-1.206,1.314,1.139,1.139,0,0,1-.967-.537v1.265h-.376Zm2.163,1.27v-.01a.909.909,0,0,0-.889-.977.941.941,0,0,0-.913.972v.01a.94.94,0,0,0,.913.977.891.891,0,0,0,.889-.972" transform="translate(-109.976 -193.849)" fill="#fff"/>
    <path id="Trazado_14" data-name="Trazado 14" d="M153.407,218.639v-1.567h.376v1.475a.673.673,0,0,0,.7.762.745.745,0,0,0,.757-.791v-1.445h.371V219.6h-.371v-.439a.962.962,0,0,1-.864.493.922.922,0,0,1-.967-1.011" transform="translate(-137.32 -194.308)" fill="#fff"/>
    <path id="Trazado_15" data-name="Trazado 15" d="M180.976,209.046v-.01a1.245,1.245,0,0,1,1.211-1.314,1.2,1.2,0,0,1,1.177,1.333.974.974,0,0,1,0,.122h-2a.882.882,0,0,0,.889.855,1.045,1.045,0,0,0,.8-.356l.234.21a1.3,1.3,0,0,1-1.04.474,1.255,1.255,0,0,1-1.26-1.313m2.007-.146a.831.831,0,0,0-.806-.859.87.87,0,0,0-.82.859Zm-.493-2.212.391.181-.557.527h-.293Z" transform="translate(-161.998 -185.013)" fill="#fff"/>
    <path id="Trazado_16" data-name="Trazado 16" d="M208.031,218.9l.19-.269a1.475,1.475,0,0,0,.874.322c.3,0,.522-.156.522-.4v-.01c0-.254-.3-.352-.63-.444-.4-.112-.835-.249-.835-.713v-.01a.764.764,0,0,1,.859-.723,1.726,1.726,0,0,1,.908.278l-.171.283a1.427,1.427,0,0,0-.747-.244c-.3,0-.488.156-.488.366v.01c0,.239.313.332.649.435.391.117.811.269.811.723v.01a.8.8,0,0,1-.9.757,1.737,1.737,0,0,1-1.045-.371" transform="translate(-186.215 -193.933)" fill="#fff"/>
    <path id="Trazado_17" data-name="Trazado 17" d="M231.014,212.425V210.9h-.352v-.332h.352v-.762h.376v.762h.8v.332h-.8v1.475a.374.374,0,0,0,.425.42.791.791,0,0,0,.366-.088v.322a.946.946,0,0,1-.454.107.643.643,0,0,1-.713-.713" transform="translate(-206.473 -187.806)" fill="#fff"/>
    <path id="Trazado_18" data-name="Trazado 18" d="M249.754,218.572v-.01c0-.532.439-.815,1.079-.815a2.679,2.679,0,0,1,.777.107v-.088c0-.454-.278-.689-.752-.689a1.758,1.758,0,0,0-.767.186l-.112-.308a2.085,2.085,0,0,1,.918-.21,1.108,1.108,0,0,1,.815.278,1,1,0,0,1,.259.737V219.3h-.361v-.381a1.107,1.107,0,0,1-.913.435.85.85,0,0,1-.942-.786m1.86-.2v-.244a2.639,2.639,0,0,0-.742-.107c-.474,0-.737.205-.737.523v.01c0,.317.293.5.635.5a.763.763,0,0,0,.845-.684" transform="translate(-223.563 -194.017)" fill="#fff"/>
    <rect id="Rect치ngulo_98" data-name="Rect치ngulo 98" width="0.376" height="3.565" transform="translate(29.243 21.724)" fill="#fff"/>
    <path id="Trazado_19" data-name="Trazado 19" d="M289.29,217.883v-.01a1.245,1.245,0,0,1,1.211-1.313,1.2,1.2,0,0,1,1.177,1.333.968.968,0,0,1,0,.122h-2a.882.882,0,0,0,.889.855,1.045,1.045,0,0,0,.8-.356l.234.21a1.3,1.3,0,0,1-1.04.474,1.255,1.255,0,0,1-1.26-1.314m2.007-.146a.831.831,0,0,0-.806-.859.87.87,0,0,0-.82.859Z" transform="translate(-258.953 -193.85)" fill="#fff"/>
    <path id="Trazado_20" data-name="Trazado 20" d="M330.5,218.572v-.01c0-.532.439-.815,1.079-.815a2.678,2.678,0,0,1,.776.107v-.088c0-.454-.278-.689-.752-.689a1.758,1.758,0,0,0-.767.186l-.112-.308a2.085,2.085,0,0,1,.918-.21,1.107,1.107,0,0,1,.815.278,1,1,0,0,1,.259.737V219.3h-.361v-.381a1.107,1.107,0,0,1-.913.435.85.85,0,0,1-.942-.786m1.86-.2v-.244a2.637,2.637,0,0,0-.742-.107c-.474,0-.737.205-.737.523v.01c0,.317.293.5.635.5a.763.763,0,0,0,.845-.684" transform="translate(-295.842 -194.017)" fill="#fff"/>
    <path id="Trazado_21" data-name="Trazado 21" d="M371.5,212.425V210.9h-.352v-.332h.352v-.762h.376v.762h.8v.332h-.8v1.475a.374.374,0,0,0,.425.42.791.791,0,0,0,.366-.088v.322a.946.946,0,0,1-.454.107.643.643,0,0,1-.713-.713" transform="translate(-332.23 -187.806)" fill="#fff"/>
    <path id="Trazado_22" data-name="Trazado 22" d="M391.689,218.639v-1.567h.376v1.475a.673.673,0,0,0,.7.762.745.745,0,0,0,.757-.791v-1.445h.371V219.6h-.371v-.439a.962.962,0,0,1-.864.493.922.922,0,0,1-.967-1.011" transform="translate(-350.614 -194.308)" fill="#fff"/>
    <path id="Trazado_23" data-name="Trazado 23" d="M434.717,216.613h.376v.508a1.135,1.135,0,0,1,.967-.562,1.231,1.231,0,0,1,1.206,1.309v.01a1.236,1.236,0,0,1-1.206,1.314,1.139,1.139,0,0,1-.967-.537v1.265h-.376Zm2.163,1.27v-.01a.909.909,0,0,0-.889-.977.941.941,0,0,0-.913.972v.01a.94.94,0,0,0,.913.977.891.891,0,0,0,.889-.972" transform="translate(-389.13 -193.849)" fill="#fff"/>
    <path id="Trazado_24" data-name="Trazado 24" d="M463.82,218.572v-.01c0-.532.439-.815,1.079-.815a2.678,2.678,0,0,1,.776.107v-.088c0-.454-.278-.689-.752-.689a1.758,1.758,0,0,0-.767.186l-.112-.308a2.084,2.084,0,0,1,.918-.21,1.107,1.107,0,0,1,.815.278,1,1,0,0,1,.259.737V219.3h-.361v-.381a1.107,1.107,0,0,1-.913.435.85.85,0,0,1-.942-.786m1.86-.2v-.244a2.638,2.638,0,0,0-.742-.107c-.474,0-.737.205-.737.523v.01c0,.317.293.5.635.5a.763.763,0,0,0,.845-.684" transform="translate(-415.181 -194.017)" fill="#fff"/>
    <path id="Trazado_25" data-name="Trazado 25" d="M490.6,218.9l.19-.269a1.475,1.475,0,0,0,.874.322c.3,0,.522-.156.522-.4v-.01c0-.254-.3-.352-.63-.444-.4-.112-.835-.249-.835-.713v-.01a.764.764,0,0,1,.859-.723,1.727,1.727,0,0,1,.908.278l-.171.283a1.427,1.427,0,0,0-.747-.244c-.3,0-.488.156-.488.366v.01c0,.239.313.332.649.435.391.117.811.269.811.723v.01a.8.8,0,0,1-.9.757,1.737,1.737,0,0,1-1.045-.371" transform="translate(-439.15 -193.933)" fill="#fff"/>
    <path id="Trazado_26" data-name="Trazado 26" d="M515.882,207.852h.43v.415h-.43Zm.024.967h.376v2.524h-.376Z" transform="translate(-461.783 -186.055)" fill="#fff"/>
    <path id="Trazado_27" data-name="Trazado 27" d="M526.545,209.051v-.01a1.316,1.316,0,0,1,2.632-.01v.01a1.311,1.311,0,0,1-1.323,1.318,1.293,1.293,0,0,1-1.309-1.309m2.246,0v-.01a.955.955,0,0,0-.937-.986.932.932,0,0,0-.923.977v.01a.947.947,0,0,0,.933.981.931.931,0,0,0,.928-.972m-.625-2.363.391.181L528,207.4h-.293Z" transform="translate(-471.328 -185.013)" fill="#fff"/>
    <path id="Trazado_28" data-name="Trazado 28" d="M558.118,216.614h.376v.439a.956.956,0,0,1,.864-.493.922.922,0,0,1,.967,1.011v1.567h-.376v-1.475a.673.673,0,0,0-.7-.762.743.743,0,0,0-.757.791v1.445h-.376Z" transform="translate(-499.59 -193.85)" fill="#fff"/>
  </g>
</svg>
